<svg xmlns="http://www.w3.org/2000/svg" viewBox="0 0 58.03 59.57"><defs><style>.cls-1{fill:#fc0101;}.cls-2{fill:#016691;}.cls-3{fill:#006d97;}.cls-4{fill:#00759e;}.cls-5{fill:#04a5d2;}.cls-6{fill:#016990;}.cls-7{fill:#007da7;}.cls-8{fill:#0085b0;}.cls-9{fill:#019cc9;}.cls-10{fill:#008db9;}.cls-11{fill:#0295c2;}.cls-12{fill:#07afdd;}.cls-13{fill:#007faa;}.cls-14{fill:#8ee5f3;}.cls-15{fill:#89714d;}.cls-16{fill:#524733;}.cls-17{fill:#a07f51;}.cls-18{fill:#dcbb81;}.cls-19{fill:#44bee3;}.cls-20{fill:#2ac2ef;}.cls-21{fill:#8be4f0;}.cls-22{fill:#d5d6d8;}.cls-23{fill:#443621;}.cls-24{fill:#a08b6e;}.cls-25{fill:#d50304;}.cls-26{fill:#97f2fa;}.cls-27{fill:#78dbf4;}.cls-28{fill:#00739e;}.cls-29{fill:#0677a2;}.cls-30{fill:#3aaed5;}.cls-31{fill:#088fba;}.cls-32{fill:#1d9fc9;}.cls-33{fill:#33b1d8;}.cls-34{fill:#63ceee;}.cls-35{fill:#56c9ed;}</style></defs><g id="Sphynx-Desc"><path class="cls-1" d="M28.85,4.56c.09-1.85.8-2.78,2.89-2.57,3.23.32,6.48.47,9.72.52,2.15,0,3,1.11,3,3.07,1.32,4.66.37,6.11-4.17,6.37-1.28.07-2.63-.19-3.76.69C35.09,15.21,36,18,35.78,20.7c-.11,1.42,0,2.86,0,4.29-.06,4.3-1.25,6.28-3.86,6-3.8-.48-3-3.62-3.11-6.09-.23-4.16.34-8.33-.36-12.47a6.81,6.81,0,0,1-.33-1.33A15.53,15.53,0,0,1,28,7,4.17,4.17,0,0,1,28.85,4.56Z"/><path class="cls-2" d="M55.8,32.8c.58,9.93.58,9.89-9.38,10.27-2.84.11-5.67.5-8.51.76-1.4,1.27-3.13,1.11-4.83,1.11-2.38-.19-4.87.62-7.12-.8a3.73,3.73,0,0,1-.86-3.35c.57-3.44,2.72-4.3,6-4.59,6-.51,11.86.26,17.77.78,2.57.23,5,.31,5.43-3.22A1.18,1.18,0,0,1,55.8,32.8Z"/><path class="cls-3" d="M55.8,32.8c-1.9,1.46.73,4.81-2,5.54a14.77,14.77,0,0,1-6.61-.11c-5.33-1.15-10.69-.54-16-.79-2.69-.13-4.41.61-5.2,3.21-1.87-2.09-.93-4.59-1-6.93.08-.63.41-1.22.51-1.83.43-2.71,2-2.55,4-1.69,1.73,1.14,2.43,5.13,5.66,2,3.38-1.74,7.11-.43,10.63-1.23,1.74-.39,3.52-.69,5.28-1,2.21-.38,3.11-1.49,3.11-3.6.3-.75.57-1.55,1.64-1.41C55.77,27.57,55.78,30.19,55.8,32.8Z"/><path class="cls-4" d="M1.64,40.65l0-6.29a23.71,23.71,0,0,0,11.78-2,9.88,9.88,0,0,1,3-.74c7.67-.88,9.35.83,8.5,8.59a1.3,1.3,0,0,1-1.65.61c-6.14-2.12-12.1-1.19-18,.95C3.78,42.34,2.47,42.22,1.64,40.65Z"/><path class="cls-5" d="M3.11,12.24a10.25,10.25,0,0,1,6.18-7c1.76.86,3.89.08,5.58,1.26a1.49,1.49,0,0,1-.12,2.36c-2.84,2.55-.34,3.14,1.45,3.76,1.47.5,3.07.21,4.62.16,1.75,0,3,.56,3.49,2.37a2.58,2.58,0,0,1-.68,2.33A27.83,27.83,0,0,1,8,17.42C5.69,16.8,3.2,15.43,3.11,12.24Z"/><path class="cls-6" d="M1.64,40.65c.61.22,1.45.82,1.78.61,4.33-2.79,9.46-1.78,14.08-3,2.92-.81,4.71,1.34,6.9,2.44,1.1,1,.71,2.39,1,3.6-.81,1.17-1.77,1-2.8.34-6-.2-12-.62-18-.49C1.65,44.16,1.21,43,1.64,40.65Z"/><path class="cls-7" d="M25.32,43.87c-1.19-.82-.84-2.08-.92-3.22,0-8.14-4.43-10.61-11.88-6.46-2.72,1.51-5.86.8-8.64,2-1.11.48-1.34-1.39-2.28-1.83l0-4.71c6.09,2,11.83-1,17.74-1.48,3.58-.28,5.71.14,6.8,3.62a.79.79,0,0,1-.12,1c0,2.62,0,5.23,0,7.85,0,1.06,0,2.13,0,3.19l-.33.21Z"/><path class="cls-8" d="M26,32c-.12,0-.3.17-.36.12-3.91-2.63-4.51-2.82-9.85-2.43a10.88,10.88,0,0,0-4.52.93c-3.57,2.05-6.65,1.29-9.67-1l0-6.3c6.78,2.7,13.75,2.24,20.76,1.24a4.52,4.52,0,0,1,4.21,1.46C27.59,28.15,26.39,30,26,32Z"/><path class="cls-9" d="M3.11,12.24a12,12,0,0,0,10.55,4.88c3.34-.1,6.69,0,10-.05a9.14,9.14,0,0,1,5.33,2,2.75,2.75,0,0,1-.54,2.18,3.67,3.67,0,0,1-2.23.83c-6.07-.57-12.17-.57-18.25-.89C4.19,21,2.13,18.44,2.32,14.5A2.64,2.64,0,0,1,3.11,12.24Z"/><path class="cls-10" d="M26,21h2.34c1.62,2.76.89,4.36-2.35,4.7-6.28.9-12.6.77-18.92.79-2.51,0-3.85-1.83-5.52-3.18,0-1,0-2.08,0-3.12a1.85,1.85,0,0,1,1.88-.09c6.7,3.93,14.07,1.18,21.08,2.1C25.12,22.31,25.52,21.48,26,21Z"/><path class="cls-11" d="M26,21c0,1.4-.19,2.59-2.09,2.52-3.07-.12-6.15-.19-9.23-.15-4.65.06-9.36.46-13.11-3.17-.17-2-.32-3.93.76-5.73,1.24,4.33,3.2,5.35,7.62,5.61C15.29,20.42,20.69,19.91,26,21Z"/><path class="cls-12" d="M23.55,14.75c-1.28-1.87-3.11-.53-4.67-.77s-3.22.44-4.57-.55S11.43,11.67,11.44,10s2.07-1.14,3-1.88c.28-.21.37-.66.54-1-.68-1-1-1.95.23-2.77a1,1,0,0,1,1.33.12C17.79,5.77,19.76,5.8,21.07,7a9.56,9.56,0,0,1,2.59,3.54,6.19,6.19,0,0,1,.56,3.31A1.82,1.82,0,0,1,23.55,14.75Z"/><path class="cls-13" d="M55.75,25,55,26.52a5,5,0,0,1-3.54,1.29c-5.37.06-10.75.09-16.12.43a9.46,9.46,0,0,1-.18-4.84c1.16-1.4,2.78-1.18,4.32-1.19,3.51,0,7,0,10.52,0,1.22,0,2.65.5,3.53-.92a13.26,13.26,0,0,0,.37-2.34,4,4,0,0,1,.73-2.25l.51-.33C56.31,19.15,55.74,22.07,55.75,25Z"/><path class="cls-14" d="M51.66,9.26c1,1.5,2.66,2.65,2.75,4.7l-.51.52c-4.56,1.2-9.19.6-13.78.38a3.77,3.77,0,0,1-3.32-2.33c.74-2.56,2.81-.86,4.22-1.28,1-.32,2.34.44,3.24-.73C47.12,6.77,47.42,6.72,51.66,9.26Z"/><path class="cls-15" d="M37.72,51.65c-.26,1.51,1.12,3.3-.78,4.53-1.38-2-1.91-4.44-3.36-6.41-.83-1.13-1.78-1.88-3.24-1.5s-1.58,1.49-1.72,2.7a24.68,24.68,0,0,1-1.08,5.23H23.62c-.73-2.24,0-4.65-.72-6.89l-.07-3.19c1.45-.11,2.73.68,4.42,0C33,43.73,36.31,45.62,37.72,51.65Z"/><path class="cls-16" d="M37.72,51.65c-3-6.26-7.23-7.19-11.73-3.6-2.48,2-1.74-1.86-3.16-1.93l-.21-1.53,2.7-.72a1.27,1.27,0,0,0,.67,0l7.05,0c1.41,1.1,3.32,1.12,4.72,2.24Z"/><path class="cls-17" d="M27.54,56.2c-1.43-2.55-.1-5.06.5-7.4s4.22-2.7,5.71-.61c1.67,2.35,3.76,4.69,3.19,8l-3.15,0c-1-1.9-.56-4.33-2.44-6.29-1.92,1.78-.4,4.67-2.16,6.25Z"/><path class="cls-18" d="M29.19,56.18c0-2-.07-3.9.07-5.84a2.41,2.41,0,0,1,1.89-2.26c1.34-.27,1.78.86,2,1.91.38,2.06,2.35,4,.66,6.23Z"/><path class="cls-19" d="M54.41,14c.77.63.63,1.55.76,2.38h-.34c-.4.34.17,0-.24.3-3.06,2.33-16,2.34-19.2,0a1.08,1.08,0,0,1,0-1.33c1.22-1,2.61-.7,4.05-.73,4.87-.07,9.81,1.07,14.61-.65Z"/><path class="cls-20" d="M20.45,7.69c-1.38-1-3.6-1-3.89-3.26l12.29.13.06,2.29C26.29,9.21,23.27,7.44,20.45,7.69Z"/><path class="cls-21" d="M51.66,9.26C49,8.81,45.94,6.66,44.28,11c-.37,1-1.88.47-2.89.58-1.49.16-3.12-.51-4.42.77-.76.42-1.27,0-1.71-.55A.67.67,0,0,1,35.4,11c1,0,2.07,0,3.1.06,5.66.13,5.66.14,6-5.43C47.18,6.23,50,6.64,51.66,9.26Z"/><path class="cls-22" d="M15.23,4.31c-.07.92-.15,1.85-.23,2.77-1.77-1-4.58,1.15-5.71-1.86A7.09,7.09,0,0,1,15.23,4.31Z"/><path class="cls-23" d="M37.76,46.12C35.49,46.84,34,46,33,43.88l4.87-.05Z"/><path class="cls-24" d="M22.9,49.31c1.19,2.2.88,4.55.72,6.89C21.91,54.06,23,51.62,22.9,49.31Z"/><path class="cls-25" d="M35.4,11c0,.26,0,.53,0,.8a2.76,2.76,0,0,1-.06,3.85v.79a4.91,4.91,0,0,1,.9,1.61,6.14,6.14,0,0,1,.25,1.86,4.51,4.51,0,0,1-1.08,3.55c0,1.56,0,3.12,0,4.69a3,3,0,0,1-.15,4.53c-1,1-1.35,3.08-3.33,2.6-2.61-.63-1.95-3.24-2.7-5a3.65,3.65,0,0,1-1.14-3.84c.85-2.37.51-4.78.61-7.18,0-1.58-1-3-.72-4.67a4.75,4.75,0,0,1,.35-2,2,2,0,0,1,.92-.93c1.38,4.74.25,9.59.7,14.37.14,1.51-.85,3.9,1.76,4s2.8-1.84,2.9-4.05C34.87,21,33.66,15.88,35.4,11Z"/><path class="cls-26" d="M20.45,7.69c2.65-2,5.68-.09,8.46-.84l0,4c-2,1.36-4.08,2.68-6.11,0Z"/><path class="cls-27" d="M22.83,10.82c2,1.55,4.08-.4,6.11,0,.12.27.23.54.34.81-.12.27-.23.55-.35.82a5.15,5.15,0,0,1-4.34,2,1.85,1.85,0,0,1-.92-.57Z"/><path class="cls-28" d="M35.29,32.63l.15-4.54a7.11,7.11,0,0,1,5.06-1.61c4.84.11,9.68,0,14.53,0,0,3.94-1.83,5.24-7.54,5.5C43.42,32.2,39.35,32.43,35.29,32.63Z"/><path class="cls-29" d="M29,18.76l.27,11.48c-.09.75-.17,1.49-.26,2.34-1.3-.4-.12-2.11-1.46-2.45-1.29.38-.41,2.16-1.55,2.67,0-.26,0-.53,0-.8,0-2.08,0-4.17,0-6.26.79-1.57,3.31-2.27,2.35-4.7,0-.75,0-1.5,0-2.24C28.53,18.24,28.74,18.23,29,18.76Z"/><path class="cls-30" d="M29,18.76l-.33,0-.32.06c-2,.65-3.27-.7-4.64-1.73l-.15-2.32.12-.84.69.11c1.49,1.46,3-.08,4.56.08C28.94,15.65,29,17.21,29,18.76Z"/><path class="cls-31" d="M35.42,23.41c0-1.3,0-2.59-.05-3.89,5.49.5,11,.27,16.49.33A4.44,4.44,0,0,1,55,21c.16,2.29-1.35,2.36-3,2.35C46.47,23.37,40.94,23.4,35.42,23.41Z"/><path class="cls-32" d="M55,21c-4.75,0-9.51-.09-14.25,0a8.3,8.3,0,0,1-5.4-1.54c0-.52,0-1.05,0-1.58,5.18.56,10.35-.36,15.52-.05,1.39.09,2.9-.38,4.09.77Z"/><path class="cls-33" d="M55,18.66c-5,.27-10-.57-15,.74-1.8.48-3.2-.61-4.63-1.46V16.39a54,54,0,0,0,19.48-.06C54.88,17.11,54.92,17.88,55,18.66Z"/><path class="cls-34" d="M35.35,15.6l.06-3.85,1.56.63c5.47,3,11.4,1,17.1,1.56-.23,2.3-2,1.53-3.27,1.55C45.65,15.6,40.5,15.58,35.35,15.6Z"/><path class="cls-35" d="M28.92,14.1c-1.55,1.84-3.11,4-4.56-.08l4.57-1.55C28.93,13,28.92,13.56,28.92,14.1Z"/></g></svg>